<svg xmlns="http://www.w3.org/2000/svg" xmlns:xlink="http://www.w3.org/1999/xlink" width="500" zoomAndPan="magnify" viewBox="0 0 375 374.999991" height="500" preserveAspectRatio="xMidYMid meet" version="1.0"><path fill="#004aad" d="M 375 1.511719 L 375 172.03125 C 352.863281 167.136719 329.949219 164.582031 306.355469 164.582031 C 264.324219 164.582031 224.21875 172.707031 187.5 187.5 C 202.292969 150.78125 210.417969 110.675781 210.417969 68.644531 C 210.417969 45.625 207.96875 23.125 203.28125 1.511719 Z M 375 1.511719 " fill-opacity="1" fill-rule="evenodd"/><path fill="#5e17eb" d="M 373.488281 375 L 202.96875 375 C 207.863281 352.863281 210.417969 329.949219 210.417969 306.355469 C 210.417969 264.324219 202.292969 224.21875 187.5 187.5 C 224.21875 202.292969 264.324219 210.417969 306.355469 210.417969 C 329.375 210.417969 351.875 207.96875 373.488281 203.28125 Z M 373.488281 375 " fill-opacity="1" fill-rule="evenodd"/><path fill="#004aad" d="M 0 373.488281 L 0 202.96875 C 22.136719 207.8125 45.050781 210.417969 68.644531 210.417969 C 110.675781 210.417969 150.78125 202.292969 187.5 187.5 C 172.707031 224.21875 164.582031 264.324219 164.582031 306.355469 C 164.582031 329.425781 166.980469 351.875 171.71875 373.488281 Z M 0 373.488281 " fill-opacity="1" fill-rule="evenodd"/><path fill="#5e17eb" d="M 1.511719 0 L 172.03125 0 C 167.136719 22.136719 164.582031 45.050781 164.582031 68.644531 C 164.582031 110.675781 172.707031 150.78125 187.5 187.5 C 150.78125 172.707031 110.675781 164.582031 68.644531 164.582031 C 45.574219 164.582031 23.125 167.03125 1.511719 171.71875 Z M 1.511719 0 " fill-opacity="1" fill-rule="evenodd"/></svg>